{
    "asset" : {
        "generator" : "Khronos glTF Blender I/O v3.2.40",
        "version" : "2.0"
    },
    "scene" : 0,
    "scenes" : [
        {
            "name" : "Scene",
            "nodes" : [
                0,
                1,
                2,
                3,
                4,
                5,
                6,
                7
            ]
        }
    ],
    "nodes" : [
        {
            "mesh" : 0,
            "name" : "pardes",
            "rotation" : [
                0,
                1,
                0,
                0
            ],
            "scale" : [
                0.046995025128126144,
                0.6404306292533875,
                4.5336689949035645
            ],
            "translation" : [
                -4.657662868499756,
                0.7414150238037109,
                -1.5424115657806396
            ]
        },
        {
            "mesh" : 1,
            "name" : "Cylinder",
            "scale" : [
                0.31974557042121887,
                0.21472591161727905,
                0.31974557042121887
            ],
            "translation" : [
                0.04384970664978027,
                1.9158368110656738,
                -4.5003180503845215
            ]
        },
        {
            "mesh" : 2,
            "name" : "Icosphere.001",
            "scale" : [
                0.9982104301452637,
                0.963384211063385,
                0.9982104301452637
            ],
            "translation" : [
                -0.007860064506530762,
                4.383685111999512,
                -3.1617307662963867
            ]
        },
        {
            "mesh" : 3,
            "name" : "Icosphere.002",
            "scale" : [
                1.3899590969085693,
                0.9010117053985596,
                1.3899590969085693
            ],
            "translation" : [
                -0.249406099319458,
                4.501152992248535,
                -4.839577674865723
            ]
        },
        {
            "mesh" : 4,
            "name" : "Icosphere.003",
            "rotation" : [
                0,
                0,
                0.9998247623443604,
                0.018720919266343117
            ],
            "scale" : [
                0.9982104301452637,
                0.6470688581466675,
                0.9982104301452637
            ],
            "translation" : [
                1.1298887729644775,
                4.38546085357666,
                -4.163846969604492
            ]
        },
        {
            "mesh" : 5,
            "name" : "Icosphere.004",
            "rotation" : [
                0,
                0,
                0.9998247623443604,
                0.018720919266343117
            ],
            "scale" : [
                0.9982104301452637,
                0.6470688581466675,
                0.9982104301452637
            ],
            "translation" : [
                -1.0552937984466553,
                4.179261207580566,
                -3.973827362060547
            ]
        },
        {
            "mesh" : 6,
            "name" : "Cuadro",
            "scale" : [
                0.08698282390832901,
                1.0170706510543823,
                1.0170706510543823
            ],
            "translation" : [
                -4.443486213684082,
                3.8586480617523193,
                -2.8807318210601807
            ]
        },
        {
            "mesh" : 7,
            "name" : "pardes_collider",
            "rotation" : [
                0,
                1,
                0,
                0
            ],
            "scale" : [
                0.046995025128126144,
                0.6404306292533875,
                4.5336689949035645
            ],
            "translation" : [
                -4.657662868499756,
                0.7414150238037109,
                -1.5424115657806396
            ]
        }
    ],
    "materials" : [
        {
            "doubleSided" : true,
            "name" : "arquitecture",
            "pbrMetallicRoughness" : {
                "baseColorTexture" : {
                    "index" : 0
                },
                "metallicFactor" : 0,
                "roughnessFactor" : 0.5
            }
        },
        {
            "doubleSided" : true,
            "name" : "partner.001",
            "pbrMetallicRoughness" : {
                "baseColorTexture" : {
                    "index" : 1
                },
                "metallicFactor" : 0,
                "roughnessFactor" : 0.5
            }
        },
        {
            "doubleSided" : true,
            "name" : "arquitecture.001",
            "pbrMetallicRoughness" : {
                "baseColorTexture" : {
                    "index" : 2
                },
                "metallicFactor" : 0,
                "roughnessFactor" : 0.5
            }
        }
    ],
    "meshes" : [
        {
            "name" : "Cube.001",
            "primitives" : [
                {
                    "attributes" : {
                        "POSITION" : 0,
                        "NORMAL" : 1,
                        "TEXCOORD_0" : 2
                    },
                    "indices" : 3,
                    "material" : 0
                }
            ]
        },
        {
            "name" : "Cylinder",
            "primitives" : [
                {
                    "attributes" : {
                        "POSITION" : 4,
                        "NORMAL" : 5,
                        "TEXCOORD_0" : 6
                    },
                    "indices" : 7,
                    "material" : 0
                }
            ]
        },
        {
            "name" : "Icosphere.001",
            "primitives" : [
                {
                    "attributes" : {
                        "POSITION" : 8,
                        "NORMAL" : 9,
                        "TEXCOORD_0" : 10
                    },
                    "indices" : 11,
                    "material" : 0
                }
            ]
        },
        {
            "name" : "Icosphere.002",
            "primitives" : [
                {
                    "attributes" : {
                        "POSITION" : 12,
                        "NORMAL" : 13,
                        "TEXCOORD_0" : 14
                    },
                    "indices" : 11,
                    "material" : 0
                }
            ]
        },
        {
            "name" : "Icosphere.003",
            "primitives" : [
                {
                    "attributes" : {
                        "POSITION" : 15,
                        "NORMAL" : 16,
                        "TEXCOORD_0" : 17
                    },
                    "indices" : 18,
                    "material" : 0
                }
            ]
        },
        {
            "name" : "Icosphere.004",
            "primitives" : [
                {
                    "attributes" : {
                        "POSITION" : 19,
                        "NORMAL" : 20,
                        "TEXCOORD_0" : 21
                    },
                    "indices" : 18,
                    "material" : 0
                }
            ]
        },
        {
            "name" : "Cube.003",
            "primitives" : [
                {
                    "attributes" : {
                        "POSITION" : 22,
                        "NORMAL" : 23,
                        "TEXCOORD_0" : 24
                    },
                    "indices" : 25,
                    "material" : 1
                }
            ]
        },
        {
            "name" : "Cube.004",
            "primitives" : [
                {
                    "attributes" : {
                        "POSITION" : 26,
                        "NORMAL" : 27,
                        "TEXCOORD_0" : 28
                    },
                    "indices" : 3,
                    "material" : 2
                }
            ]
        }
    ],
    "textures" : [
        {
            "sampler" : 0,
            "source" : 0
        },
        {
            "sampler" : 0,
            "source" : 1
        },
        {
            "sampler" : 0,
            "source" : 0
        }
    ],
    "images" : [
        {
            "mimeType" : "image/png",
            "name" : "AvatarWearables_TXlogo",
            "uri" : "texture/AvatarWearables_TXlogo.png"
        },
        {
            "mimeType" : "image/jpeg",
            "name" : "3DModelingProof",
            "uri" : "texture/3DModelingProof.jpg"
        }
    ],
    "accessors" : [
        {
            "bufferView" : 0,
            "componentType" : 5126,
            "count" : 200,
            "max" : [
                -1,
                7.046987533569336,
                0.9961492419242859
            ],
            "min" : [
                -125.74971008300781,
                -1.0029503107070923,
                -1.6357483863830566
            ],
            "type" : "VEC3"
        },
        {
            "bufferView" : 1,
            "componentType" : 5126,
            "count" : 200,
            "type" : "VEC3"
        },
        {
            "bufferView" : 2,
            "componentType" : 5126,
            "count" : 200,
            "type" : "VEC2"
        },
        {
            "bufferView" : 3,
            "componentType" : 5123,
            "count" : 330,
            "type" : "SCALAR"
        },
        {
            "bufferView" : 4,
            "componentType" : 5126,
            "count" : 138,
            "max" : [
                4.0651021003723145,
                10.807491302490234,
                4.974252223968506
            ],
            "min" : [
                -4.069570064544678,
                -1.1436842679977417,
                -2.474144220352173
            ],
            "type" : "VEC3"
        },
        {
            "bufferView" : 5,
            "componentType" : 5126,
            "count" : 138,
            "type" : "VEC3"
        },
        {
            "bufferView" : 6,
            "componentType" : 5126,
            "count" : 138,
            "type" : "VEC2"
        },
        {
            "bufferView" : 7,
            "componentType" : 5123,
            "count" : 666,
            "type" : "SCALAR"
        },
        {
            "bufferView" : 8,
            "componentType" : 5126,
            "count" : 63,
            "max" : [
                0.8922591805458069,
                0.40914803743362427,
                0.46589022874832153
            ],
            "min" : [
                -0.8739385008811951,
                -0.8437011241912842,
                -1.0123658180236816
            ],
            "type" : "VEC3"
        },
        {
            "bufferView" : 9,
            "componentType" : 5126,
            "count" : 63,
            "type" : "VEC3"
        },
        {
            "bufferView" : 10,
            "componentType" : 5126,
            "count" : 63,
            "type" : "VEC2"
        },
        {
            "bufferView" : 11,
            "componentType" : 5123,
            "count" : 240,
            "type" : "SCALAR"
        },
        {
            "bufferView" : 12,
            "componentType" : 5126,
            "count" : 63,
            "max" : [
                0.7837848663330078,
                0.7614580988883972,
                0.7847039103507996
            ],
            "min" : [
                -0.8240454196929932,
                -0.8128581047058105,
                -0.7827935814857483
            ],
            "type" : "VEC3"
        },
        {
            "bufferView" : 13,
            "componentType" : 5126,
            "count" : 63,
            "type" : "VEC3"
        },
        {
            "bufferView" : 14,
            "componentType" : 5126,
            "count" : 63,
            "type" : "VEC2"
        },
        {
            "bufferView" : 15,
            "componentType" : 5126,
            "count" : 63,
            "max" : [
                0.7688038349151611,
                0.9662432670593262,
                0.6681303977966309
            ],
            "min" : [
                -0.40087059140205383,
                -0.6520552039146423,
                -0.5481854677200317
            ],
            "type" : "VEC3"
        },
        {
            "bufferView" : 16,
            "componentType" : 5126,
            "count" : 63,
            "type" : "VEC3"
        },
        {
            "bufferView" : 17,
            "componentType" : 5126,
            "count" : 63,
            "type" : "VEC2"
        },
        {
            "bufferView" : 18,
            "componentType" : 5123,
            "count" : 240,
            "type" : "SCALAR"
        },
        {
            "bufferView" : 19,
            "componentType" : 5126,
            "count" : 63,
            "max" : [
                0.6526567339897156,
                0.7614580988883972,
                0.6447669267654419
            ],
            "min" : [
                -0.6448971629142761,
                -0.6427208185195923,
                -0.6746648550033569
            ],
            "type" : "VEC3"
        },
        {
            "bufferView" : 20,
            "componentType" : 5126,
            "count" : 63,
            "type" : "VEC3"
        },
        {
            "bufferView" : 21,
            "componentType" : 5126,
            "count" : 63,
            "type" : "VEC2"
        },
        {
            "bufferView" : 22,
            "componentType" : 5126,
            "count" : 32,
            "max" : [
                1,
                1,
                1
            ],
            "min" : [
                -1,
                -1,
                -1
            ],
            "type" : "VEC3"
        },
        {
            "bufferView" : 23,
            "componentType" : 5126,
            "count" : 32,
            "type" : "VEC3"
        },
        {
            "bufferView" : 24,
            "componentType" : 5126,
            "count" : 32,
            "type" : "VEC2"
        },
        {
            "bufferView" : 25,
            "componentType" : 5123,
            "count" : 60,
            "type" : "SCALAR"
        },
        {
            "bufferView" : 26,
            "componentType" : 5126,
            "count" : 200,
            "max" : [
                -1,
                7.046987533569336,
                0.9961492419242859
            ],
            "min" : [
                -125.74971008300781,
                -1.0029503107070923,
                -1.6357483863830566
            ],
            "type" : "VEC3"
        },
        {
            "bufferView" : 27,
            "componentType" : 5126,
            "count" : 200,
            "type" : "VEC3"
        },
        {
            "bufferView" : 28,
            "componentType" : 5126,
            "count" : 200,
            "type" : "VEC2"
        }
    ],
    "bufferViews" : [
        {
            "buffer" : 0,
            "byteLength" : 2400,
            "byteOffset" : 0
        },
        {
            "buffer" : 0,
            "byteLength" : 2400,
            "byteOffset" : 2400
        },
        {
            "buffer" : 0,
            "byteLength" : 1600,
            "byteOffset" : 4800
        },
        {
            "buffer" : 0,
            "byteLength" : 660,
            "byteOffset" : 6400
        },
        {
            "buffer" : 0,
            "byteLength" : 1656,
            "byteOffset" : 7060
        },
        {
            "buffer" : 0,
            "byteLength" : 1656,
            "byteOffset" : 8716
        },
        {
            "buffer" : 0,
            "byteLength" : 1104,
            "byteOffset" : 10372
        },
        {
            "buffer" : 0,
            "byteLength" : 1332,
            "byteOffset" : 11476
        },
        {
            "buffer" : 0,
            "byteLength" : 756,
            "byteOffset" : 12808
        },
        {
            "buffer" : 0,
            "byteLength" : 756,
            "byteOffset" : 13564
        },
        {
            "buffer" : 0,
            "byteLength" : 504,
            "byteOffset" : 14320
        },
        {
            "buffer" : 0,
            "byteLength" : 480,
            "byteOffset" : 14824
        },
        {
            "buffer" : 0,
            "byteLength" : 756,
            "byteOffset" : 15304
        },
        {
            "buffer" : 0,
            "byteLength" : 756,
            "byteOffset" : 16060
        },
        {
            "buffer" : 0,
            "byteLength" : 504,
            "byteOffset" : 16816
        },
        {
            "buffer" : 0,
            "byteLength" : 756,
            "byteOffset" : 17320
        },
        {
            "buffer" : 0,
            "byteLength" : 756,
            "byteOffset" : 18076
        },
        {
            "buffer" : 0,
            "byteLength" : 504,
            "byteOffset" : 18832
        },
        {
            "buffer" : 0,
            "byteLength" : 480,
            "byteOffset" : 19336
        },
        {
            "buffer" : 0,
            "byteLength" : 756,
            "byteOffset" : 19816
        },
        {
            "buffer" : 0,
            "byteLength" : 756,
            "byteOffset" : 20572
        },
        {
            "buffer" : 0,
            "byteLength" : 504,
            "byteOffset" : 21328
        },
        {
            "buffer" : 0,
            "byteLength" : 384,
            "byteOffset" : 21832
        },
        {
            "buffer" : 0,
            "byteLength" : 384,
            "byteOffset" : 22216
        },
        {
            "buffer" : 0,
            "byteLength" : 256,
            "byteOffset" : 22600
        },
        {
            "buffer" : 0,
            "byteLength" : 120,
            "byteOffset" : 22856
        },
        {
            "buffer" : 0,
            "byteLength" : 2400,
            "byteOffset" : 22976
        },
        {
            "buffer" : 0,
            "byteLength" : 2400,
            "byteOffset" : 25376
        },
        {
            "buffer" : 0,
            "byteLength" : 1600,
            "byteOffset" : 27776
        }
    ],
    "samplers" : [
        {
            "magFilter" : 9729,
            "minFilter" : 9987
        }
    ],
    "buffers" : [
        {
            "byteLength" : 29376,
            "uri" : "test_arch.bin"
        }
    ]
}
